<mxfile host="app.diagrams.net" agent="Mozilla/5.0 (Macintosh; Intel Mac OS X 10_15_7) AppleWebKit/537.36 (KHTML, like Gecko) Chrome/133.0.0.0 Safari/537.36" version="26.0.16">
  <diagram name="Page-1" id="42d8DIYAvOvO_mkiUqOQ">
    <mxGraphModel dx="3142" dy="1916" grid="1" gridSize="10" guides="1" tooltips="1" connect="1" arrows="1" fold="1" page="1" pageScale="1" pageWidth="850" pageHeight="1100" math="0" shadow="0">
      <root>
        <mxCell id="0" />
        <mxCell id="1" parent="0" />
        <mxCell id="EolSN5C76lXSOtRn-z-2-1" value="Actor" style="shape=umlActor;verticalLabelPosition=bottom;verticalAlign=top;html=1;outlineConnect=0;" vertex="1" parent="1">
          <mxGeometry x="40" y="60" width="30" height="60" as="geometry" />
        </mxCell>
        <mxCell id="EolSN5C76lXSOtRn-z-2-2" value="PostDetailController" style="ellipse;shape=umlControl;whiteSpace=wrap;html=1;labelPosition=center;verticalLabelPosition=bottom;align=center;verticalAlign=top;" vertex="1" parent="1">
          <mxGeometry x="310" y="50" width="60" height="70" as="geometry" />
        </mxCell>
        <mxCell id="EolSN5C76lXSOtRn-z-2-4" value="PostDetailScreen" style="shape=umlBoundary;whiteSpace=wrap;html=1;verticalAlign=top;fontSize=12;labelPosition=center;verticalLabelPosition=bottom;align=center;" vertex="1" parent="1">
          <mxGeometry x="160" y="60" width="70" height="60" as="geometry" />
        </mxCell>
        <mxCell id="EolSN5C76lXSOtRn-z-2-5" value="EditPostForm" style="shape=umlBoundary;whiteSpace=wrap;html=1;verticalAlign=top;fontSize=12;labelPosition=center;verticalLabelPosition=bottom;align=center;" vertex="1" parent="1">
          <mxGeometry x="450" y="60" width="70" height="60" as="geometry" />
        </mxCell>
        <mxCell id="EolSN5C76lXSOtRn-z-2-6" value="EditPostController" style="ellipse;shape=umlControl;whiteSpace=wrap;html=1;labelPosition=center;verticalLabelPosition=bottom;align=center;verticalAlign=top;" vertex="1" parent="1">
          <mxGeometry x="600" y="50" width="60" height="70" as="geometry" />
        </mxCell>
        <mxCell id="EolSN5C76lXSOtRn-z-2-7" value="Post Database" style="shape=cylinder3;html=1;boundedLbl=1;backgroundOutline=1;size=15;labelPosition=center;verticalLabelPosition=bottom;align=center;verticalAlign=top;" vertex="1" parent="1">
          <mxGeometry x="740" y="60.00000000000006" width="40" height="60" as="geometry" />
        </mxCell>
        <mxCell id="EolSN5C76lXSOtRn-z-2-8" value="" style="endArrow=none;dashed=1;html=1;rounded=0;" edge="1" parent="1" source="EolSN5C76lXSOtRn-z-2-14">
          <mxGeometry width="50" height="50" relative="1" as="geometry">
            <mxPoint x="50" y="980" as="sourcePoint" />
            <mxPoint x="50" y="150" as="targetPoint" />
          </mxGeometry>
        </mxCell>
        <mxCell id="EolSN5C76lXSOtRn-z-2-9" value="" style="endArrow=none;dashed=1;html=1;rounded=0;" edge="1" parent="1">
          <mxGeometry width="50" height="50" relative="1" as="geometry">
            <mxPoint x="200" y="980" as="sourcePoint" />
            <mxPoint x="200" y="150" as="targetPoint" />
          </mxGeometry>
        </mxCell>
        <mxCell id="EolSN5C76lXSOtRn-z-2-10" value="" style="endArrow=none;dashed=1;html=1;rounded=0;" edge="1" parent="1" source="EolSN5C76lXSOtRn-z-2-17">
          <mxGeometry width="50" height="50" relative="1" as="geometry">
            <mxPoint x="339.5" y="980" as="sourcePoint" />
            <mxPoint x="339.5" y="150" as="targetPoint" />
          </mxGeometry>
        </mxCell>
        <mxCell id="EolSN5C76lXSOtRn-z-2-11" value="" style="endArrow=none;dashed=1;html=1;rounded=0;" edge="1" parent="1" source="EolSN5C76lXSOtRn-z-2-33">
          <mxGeometry width="50" height="50" relative="1" as="geometry">
            <mxPoint x="490" y="980" as="sourcePoint" />
            <mxPoint x="490" y="150" as="targetPoint" />
          </mxGeometry>
        </mxCell>
        <mxCell id="EolSN5C76lXSOtRn-z-2-12" value="" style="endArrow=none;dashed=1;html=1;rounded=0;" edge="1" parent="1" source="EolSN5C76lXSOtRn-z-2-46">
          <mxGeometry width="50" height="50" relative="1" as="geometry">
            <mxPoint x="629.5" y="980" as="sourcePoint" />
            <mxPoint x="629.5" y="150" as="targetPoint" />
          </mxGeometry>
        </mxCell>
        <mxCell id="EolSN5C76lXSOtRn-z-2-13" value="" style="endArrow=none;dashed=1;html=1;rounded=0;" edge="1" parent="1" source="EolSN5C76lXSOtRn-z-2-23">
          <mxGeometry width="50" height="50" relative="1" as="geometry">
            <mxPoint x="759.5" y="980" as="sourcePoint" />
            <mxPoint x="759.5" y="150" as="targetPoint" />
          </mxGeometry>
        </mxCell>
        <mxCell id="EolSN5C76lXSOtRn-z-2-15" value="" style="endArrow=none;dashed=1;html=1;rounded=0;" edge="1" parent="1" target="EolSN5C76lXSOtRn-z-2-14">
          <mxGeometry width="50" height="50" relative="1" as="geometry">
            <mxPoint x="50" y="980" as="sourcePoint" />
            <mxPoint x="50" y="150" as="targetPoint" />
          </mxGeometry>
        </mxCell>
        <mxCell id="EolSN5C76lXSOtRn-z-2-14" value="" style="rounded=0;whiteSpace=wrap;html=1;" vertex="1" parent="1">
          <mxGeometry x="40" y="170" width="20" height="60" as="geometry" />
        </mxCell>
        <mxCell id="EolSN5C76lXSOtRn-z-2-16" value="" style="rounded=0;whiteSpace=wrap;html=1;" vertex="1" parent="1">
          <mxGeometry x="190" y="170" width="20" height="60" as="geometry" />
        </mxCell>
        <mxCell id="EolSN5C76lXSOtRn-z-2-18" value="" style="endArrow=none;dashed=1;html=1;rounded=0;" edge="1" parent="1" target="EolSN5C76lXSOtRn-z-2-17">
          <mxGeometry width="50" height="50" relative="1" as="geometry">
            <mxPoint x="339.5" y="980" as="sourcePoint" />
            <mxPoint x="339.5" y="150" as="targetPoint" />
          </mxGeometry>
        </mxCell>
        <mxCell id="EolSN5C76lXSOtRn-z-2-17" value="" style="rounded=0;whiteSpace=wrap;html=1;" vertex="1" parent="1">
          <mxGeometry x="330" y="190" width="20" height="60" as="geometry" />
        </mxCell>
        <mxCell id="EolSN5C76lXSOtRn-z-2-19" value="Choose post from screen" style="endArrow=classic;html=1;rounded=0;labelPosition=center;verticalLabelPosition=top;align=center;verticalAlign=bottom;" edge="1" parent="1">
          <mxGeometry width="50" height="50" relative="1" as="geometry">
            <mxPoint x="60" y="190" as="sourcePoint" />
            <mxPoint x="190" y="190" as="targetPoint" />
          </mxGeometry>
        </mxCell>
        <mxCell id="EolSN5C76lXSOtRn-z-2-20" value="Send edit request" style="endArrow=classic;html=1;rounded=0;labelPosition=center;verticalLabelPosition=top;align=center;verticalAlign=bottom;" edge="1" parent="1">
          <mxGeometry width="50" height="50" relative="1" as="geometry">
            <mxPoint x="210" y="210" as="sourcePoint" />
            <mxPoint x="330" y="210" as="targetPoint" />
          </mxGeometry>
        </mxCell>
        <mxCell id="EolSN5C76lXSOtRn-z-2-22" value="" style="endArrow=none;dashed=1;html=1;rounded=0;" edge="1" parent="1" source="EolSN5C76lXSOtRn-z-2-47" target="EolSN5C76lXSOtRn-z-2-23">
          <mxGeometry width="50" height="50" relative="1" as="geometry">
            <mxPoint x="759.5" y="980" as="sourcePoint" />
            <mxPoint x="759.5" y="150" as="targetPoint" />
          </mxGeometry>
        </mxCell>
        <mxCell id="EolSN5C76lXSOtRn-z-2-23" value="" style="rounded=0;whiteSpace=wrap;html=1;" vertex="1" parent="1">
          <mxGeometry x="750" y="210" width="20" height="100" as="geometry" />
        </mxCell>
        <mxCell id="EolSN5C76lXSOtRn-z-2-24" value="Query post data" style="endArrow=classic;html=1;rounded=0;labelPosition=center;verticalLabelPosition=top;align=center;verticalAlign=bottom;" edge="1" parent="1">
          <mxGeometry width="50" height="50" relative="1" as="geometry">
            <mxPoint x="350" y="230" as="sourcePoint" />
            <mxPoint x="750" y="230" as="targetPoint" />
          </mxGeometry>
        </mxCell>
        <mxCell id="EolSN5C76lXSOtRn-z-2-25" value="" style="rounded=0;whiteSpace=wrap;html=1;" vertex="1" parent="1">
          <mxGeometry x="620" y="270" width="20" height="60" as="geometry" />
        </mxCell>
        <mxCell id="EolSN5C76lXSOtRn-z-2-26" value="" style="rounded=0;whiteSpace=wrap;html=1;" vertex="1" parent="1">
          <mxGeometry x="480" y="290" width="20" height="60" as="geometry" />
        </mxCell>
        <mxCell id="EolSN5C76lXSOtRn-z-2-27" value="Return post data" style="endArrow=classic;html=1;rounded=0;dashed=1;labelPosition=center;verticalLabelPosition=top;align=center;verticalAlign=bottom;" edge="1" parent="1">
          <mxGeometry width="50" height="50" relative="1" as="geometry">
            <mxPoint x="750" y="290" as="sourcePoint" />
            <mxPoint x="640" y="290" as="targetPoint" />
          </mxGeometry>
        </mxCell>
        <mxCell id="EolSN5C76lXSOtRn-z-2-28" value="Return post data" style="endArrow=classic;html=1;rounded=0;dashed=1;labelPosition=center;verticalLabelPosition=top;align=center;verticalAlign=bottom;" edge="1" parent="1">
          <mxGeometry width="50" height="50" relative="1" as="geometry">
            <mxPoint x="620" y="310" as="sourcePoint" />
            <mxPoint x="500" y="310" as="targetPoint" />
          </mxGeometry>
        </mxCell>
        <mxCell id="EolSN5C76lXSOtRn-z-2-29" value="" style="rounded=0;whiteSpace=wrap;html=1;" vertex="1" parent="1">
          <mxGeometry x="40" y="300" width="20" height="140" as="geometry" />
        </mxCell>
        <mxCell id="EolSN5C76lXSOtRn-z-2-31" value="Show post data" style="endArrow=classic;html=1;rounded=0;dashed=1;labelPosition=center;verticalLabelPosition=top;align=center;verticalAlign=bottom;" edge="1" parent="1">
          <mxGeometry width="50" height="50" relative="1" as="geometry">
            <mxPoint x="480" y="330" as="sourcePoint" />
            <mxPoint x="60" y="330" as="targetPoint" />
          </mxGeometry>
        </mxCell>
        <mxCell id="EolSN5C76lXSOtRn-z-2-34" value="Enter information" style="endArrow=classic;html=1;rounded=0;labelPosition=center;verticalLabelPosition=top;align=center;verticalAlign=bottom;" edge="1" parent="1">
          <mxGeometry width="50" height="50" relative="1" as="geometry">
            <mxPoint x="60" y="420" as="sourcePoint" />
            <mxPoint x="480" y="420" as="targetPoint" />
          </mxGeometry>
        </mxCell>
        <mxCell id="EolSN5C76lXSOtRn-z-2-35" value="" style="endArrow=none;dashed=1;html=1;rounded=0;" edge="1" parent="1" target="EolSN5C76lXSOtRn-z-2-33">
          <mxGeometry width="50" height="50" relative="1" as="geometry">
            <mxPoint x="490" y="980" as="sourcePoint" />
            <mxPoint x="490" y="150" as="targetPoint" />
          </mxGeometry>
        </mxCell>
        <mxCell id="EolSN5C76lXSOtRn-z-2-33" value="" style="rounded=0;whiteSpace=wrap;html=1;" vertex="1" parent="1">
          <mxGeometry x="480" y="400" width="20" height="270" as="geometry" />
        </mxCell>
        <mxCell id="EolSN5C76lXSOtRn-z-2-37" value="Validate" style="endArrow=classic;html=1;rounded=0;labelPosition=center;verticalLabelPosition=middle;align=center;verticalAlign=middle;fontFamily=Helvetica;fontSize=12;fontColor=default;" edge="1" parent="1">
          <mxGeometry width="50" height="50" relative="1" as="geometry">
            <mxPoint x="500" y="410" as="sourcePoint" />
            <mxPoint x="500" y="450" as="targetPoint" />
            <Array as="points">
              <mxPoint x="600" y="410" />
              <mxPoint x="600" y="450" />
            </Array>
          </mxGeometry>
        </mxCell>
        <mxCell id="EolSN5C76lXSOtRn-z-2-38" value="alt" style="shape=umlFrame;whiteSpace=wrap;html=1;pointerEvents=0;" vertex="1" parent="1">
          <mxGeometry x="20" y="470" width="760" height="400" as="geometry" />
        </mxCell>
        <mxCell id="EolSN5C76lXSOtRn-z-2-39" value="Any validation failed" style="text;align=center;fontStyle=1;verticalAlign=middle;spacingLeft=3;spacingRight=3;strokeColor=none;rotatable=0;points=[[0,0.5],[1,0.5]];portConstraint=eastwest;html=1;" vertex="1" parent="1">
          <mxGeometry x="100" y="470" width="80" height="26" as="geometry" />
        </mxCell>
        <mxCell id="EolSN5C76lXSOtRn-z-2-40" value="" style="rounded=0;whiteSpace=wrap;html=1;" vertex="1" parent="1">
          <mxGeometry x="40" y="530" width="20" height="60" as="geometry" />
        </mxCell>
        <mxCell id="EolSN5C76lXSOtRn-z-2-42" value="Show error message" style="endArrow=classic;html=1;rounded=0;dashed=1;labelPosition=center;verticalLabelPosition=top;align=center;verticalAlign=bottom;" edge="1" parent="1">
          <mxGeometry width="50" height="50" relative="1" as="geometry">
            <mxPoint x="480" y="540" as="sourcePoint" />
            <mxPoint x="60" y="540" as="targetPoint" />
          </mxGeometry>
        </mxCell>
        <mxCell id="EolSN5C76lXSOtRn-z-2-43" value="" style="endArrow=none;dashed=1;html=1;rounded=0;fontFamily=Helvetica;fontSize=12;fontColor=default;exitX=0.001;exitY=0.224;exitDx=0;exitDy=0;exitPerimeter=0;" edge="1" parent="1">
          <mxGeometry width="50" height="50" relative="1" as="geometry">
            <mxPoint x="30.340000000000032" y="620.0799999999999" as="sourcePoint" />
            <mxPoint x="770" y="621" as="targetPoint" />
          </mxGeometry>
        </mxCell>
        <mxCell id="EolSN5C76lXSOtRn-z-2-45" value="All validations pass" style="text;align=center;fontStyle=1;verticalAlign=middle;spacingLeft=3;spacingRight=3;strokeColor=none;rotatable=0;points=[[0,0.5],[1,0.5]];portConstraint=eastwest;html=1;" vertex="1" parent="1">
          <mxGeometry x="70" y="620" width="80" height="26" as="geometry" />
        </mxCell>
        <mxCell id="EolSN5C76lXSOtRn-z-2-48" value="" style="endArrow=none;dashed=1;html=1;rounded=0;" edge="1" parent="1" target="EolSN5C76lXSOtRn-z-2-46">
          <mxGeometry width="50" height="50" relative="1" as="geometry">
            <mxPoint x="629.5" y="980" as="sourcePoint" />
            <mxPoint x="629.5" y="150" as="targetPoint" />
          </mxGeometry>
        </mxCell>
        <mxCell id="EolSN5C76lXSOtRn-z-2-46" value="" style="rounded=0;whiteSpace=wrap;html=1;" vertex="1" parent="1">
          <mxGeometry x="620" y="640" width="20" height="60" as="geometry" />
        </mxCell>
        <mxCell id="EolSN5C76lXSOtRn-z-2-49" value="" style="endArrow=none;dashed=1;html=1;rounded=0;" edge="1" parent="1" target="EolSN5C76lXSOtRn-z-2-47">
          <mxGeometry width="50" height="50" relative="1" as="geometry">
            <mxPoint x="759.5" y="980" as="sourcePoint" />
            <mxPoint x="760" y="310" as="targetPoint" />
          </mxGeometry>
        </mxCell>
        <mxCell id="EolSN5C76lXSOtRn-z-2-47" value="" style="rounded=0;whiteSpace=wrap;html=1;" vertex="1" parent="1">
          <mxGeometry x="750" y="660" width="20" height="110" as="geometry" />
        </mxCell>
        <mxCell id="EolSN5C76lXSOtRn-z-2-50" value="Send post information" style="endArrow=classic;html=1;rounded=0;labelPosition=center;verticalLabelPosition=top;align=center;verticalAlign=bottom;" edge="1" parent="1">
          <mxGeometry width="50" height="50" relative="1" as="geometry">
            <mxPoint x="500" y="650" as="sourcePoint" />
            <mxPoint x="620" y="650" as="targetPoint" />
          </mxGeometry>
        </mxCell>
        <mxCell id="EolSN5C76lXSOtRn-z-2-51" value="Save post information" style="endArrow=classic;html=1;rounded=0;labelPosition=center;verticalLabelPosition=top;align=center;verticalAlign=bottom;" edge="1" parent="1">
          <mxGeometry width="50" height="50" relative="1" as="geometry">
            <mxPoint x="640" y="670" as="sourcePoint" />
            <mxPoint x="750" y="670" as="targetPoint" />
          </mxGeometry>
        </mxCell>
        <mxCell id="EolSN5C76lXSOtRn-z-2-53" value="" style="rounded=0;whiteSpace=wrap;html=1;" vertex="1" parent="1">
          <mxGeometry x="620" y="740" width="20" height="60" as="geometry" />
        </mxCell>
        <mxCell id="EolSN5C76lXSOtRn-z-2-54" value="" style="rounded=0;whiteSpace=wrap;html=1;" vertex="1" parent="1">
          <mxGeometry x="40" y="770" width="20" height="60" as="geometry" />
        </mxCell>
        <mxCell id="EolSN5C76lXSOtRn-z-2-55" value="Save post successfully" style="endArrow=classic;html=1;rounded=0;dashed=1;labelPosition=center;verticalLabelPosition=top;align=center;verticalAlign=bottom;" edge="1" parent="1">
          <mxGeometry width="50" height="50" relative="1" as="geometry">
            <mxPoint x="750" y="750" as="sourcePoint" />
            <mxPoint x="640" y="750" as="targetPoint" />
          </mxGeometry>
        </mxCell>
        <mxCell id="EolSN5C76lXSOtRn-z-2-56" value="" style="rounded=0;whiteSpace=wrap;html=1;" vertex="1" parent="1">
          <mxGeometry x="480" y="750" width="20" height="60" as="geometry" />
        </mxCell>
        <mxCell id="EolSN5C76lXSOtRn-z-2-57" value="Return notification" style="endArrow=classic;html=1;rounded=0;dashed=1;labelPosition=center;verticalLabelPosition=top;align=center;verticalAlign=bottom;" edge="1" parent="1">
          <mxGeometry width="50" height="50" relative="1" as="geometry">
            <mxPoint x="620" y="770" as="sourcePoint" />
            <mxPoint x="500" y="770" as="targetPoint" />
          </mxGeometry>
        </mxCell>
        <mxCell id="EolSN5C76lXSOtRn-z-2-58" value="Show notification" style="endArrow=classic;html=1;rounded=0;dashed=1;labelPosition=center;verticalLabelPosition=top;align=center;verticalAlign=bottom;" edge="1" parent="1">
          <mxGeometry width="50" height="50" relative="1" as="geometry">
            <mxPoint x="480" y="790" as="sourcePoint" />
            <mxPoint x="60" y="790" as="targetPoint" />
          </mxGeometry>
        </mxCell>
      </root>
    </mxGraphModel>
  </diagram>
</mxfile>
